<svg version="1.1" id="Layer_1" xmlns="http://www.w3.org/2000/svg" xmlns:xlink="http://www.w3.org/1999/xlink" x="0px" y="0px"
	 width="100%" viewBox="0 0 1000 1000" enable-background="new 0 0 1000 1000" xml:space="preserve">
<path fill="#000000" opacity="1.000000" stroke="none" 
	d="
M636.000000,1001.000000 
	C424.000000,1001.000000 212.500000,1001.000000 1.000000,1001.000000 
	C1.000000,667.666687 1.000000,334.333344 1.000000,1.000000 
	C334.333344,1.000000 667.666687,1.000000 1001.000000,1.000000 
	C1001.000000,334.333344 1001.000000,667.666687 1001.000000,1001.000000 
	C879.500000,1001.000000 758.000000,1001.000000 636.000000,1001.000000 
M654.366516,197.078369 
	C648.764709,193.406509 643.232666,189.622528 637.548645,186.082703 
	C615.946228,172.629517 593.130249,161.683304 569.227783,152.934204 
	C536.400635,140.918365 502.373779,134.067780 467.650970,132.372818 
	C443.718567,131.204575 419.549408,132.439453 395.626221,134.352890 
	C378.441589,135.727371 361.449707,139.792160 344.440826,143.020248 
	C316.411743,148.339844 289.914001,157.706604 266.401306,174.288834 
	C247.796356,187.409912 233.884872,204.418503 226.492599,226.081528 
	C219.863434,245.508240 218.624802,265.549896 220.866577,285.996674 
	C222.855789,304.139862 227.265640,321.641937 232.545502,339.009155 
	C239.044342,360.385925 246.108215,381.616058 251.805923,403.205658 
	C261.606842,440.342987 269.858246,477.845306 272.963074,516.255615 
	C274.505280,535.334045 276.200745,554.426270 276.805359,573.544617 
	C277.185242,585.556580 275.515869,597.622498 275.046082,609.675110 
	C274.529663,622.924622 273.438385,636.242432 274.260773,649.426758 
	C275.029388,661.749451 276.697784,674.317566 280.213379,686.108887 
	C289.554535,717.439148 310.718292,739.393433 339.412445,753.841736 
	C351.881256,760.120117 365.296539,764.883850 378.735077,768.767395 
	C391.846405,772.556396 405.471863,774.747681 418.990234,776.892456 
	C430.981964,778.795044 443.107300,780.261169 455.226105,780.862122 
	C473.559906,781.771301 491.794312,780.045349 509.934692,777.070007 
	C533.307373,773.236511 555.714417,766.369934 577.125488,756.342285 
	C599.044189,746.076843 619.351624,733.318848 638.003906,717.737366 
	C652.772095,705.400330 666.001648,691.781799 677.224548,676.231445 
	C691.648621,656.245483 702.156860,634.164490 707.618713,610.252808 
	C713.141235,586.075195 716.862854,561.471924 720.941223,536.983154 
	C724.274353,516.968689 727.181519,496.876556 729.886414,476.766266 
	C732.203674,459.537598 734.106018,442.249146 735.935364,424.959991 
	C737.785156,407.477661 739.973511,389.992981 740.805542,372.452057 
	C741.611267,355.465546 741.274536,338.457275 738.155579,321.518188 
	C732.038940,288.298492 717.872986,259.097595 695.395630,234.110870 
	C683.222168,220.578400 669.975098,208.006531 654.366516,197.078369 
z"/>
<path fill="#7BB05F" opacity="1.000000" stroke="none" 
	d="
M654.666809,197.285889 
	C669.975098,208.006531 683.222168,220.578400 695.395630,234.110870 
	C717.872986,259.097595 732.038940,288.298492 738.155579,321.518188 
	C741.274536,338.457275 741.611267,355.465546 740.805542,372.452057 
	C739.973511,389.992981 737.785156,407.477661 735.935364,424.959991 
	C734.106018,442.249146 732.203674,459.537598 729.886414,476.766266 
	C727.181519,496.876556 724.274353,516.968689 720.941223,536.983154 
	C716.862854,561.471924 713.141235,586.075195 707.618713,610.252808 
	C702.156860,634.164490 691.648621,656.245483 677.224548,676.231445 
	C666.001648,691.781799 652.772095,705.400330 638.003906,717.737366 
	C619.351624,733.318848 599.044189,746.076843 577.125488,756.342285 
	C555.714417,766.369934 533.307373,773.236511 509.934692,777.070007 
	C491.794312,780.045349 473.559906,781.771301 455.226105,780.862122 
	C443.107300,780.261169 430.981964,778.795044 418.990234,776.892456 
	C405.471863,774.747681 391.846405,772.556396 378.735077,768.767395 
	C365.296539,764.883850 351.881256,760.120117 339.412445,753.841736 
	C310.718292,739.393433 289.554535,717.439148 280.213379,686.108887 
	C276.697784,674.317566 275.029388,661.749451 274.260773,649.426758 
	C273.438385,636.242432 274.529663,622.924622 275.046082,609.675110 
	C275.515869,597.622498 277.185242,585.556580 276.805359,573.544617 
	C276.200745,554.426270 274.505280,535.334045 272.963074,516.255615 
	C269.858246,477.845306 261.606842,440.342987 251.805923,403.205658 
	C246.108215,381.616058 239.044342,360.385925 232.545502,339.009155 
	C227.265640,321.641937 222.855789,304.139862 220.866577,285.996674 
	C218.624802,265.549896 219.863434,245.508240 226.492599,226.081528 
	C233.884872,204.418503 247.796356,187.409912 266.401306,174.288834 
	C289.914001,157.706604 316.411743,148.339844 344.440826,143.020248 
	C361.449707,139.792160 378.441589,135.727371 395.626221,134.352890 
	C419.549408,132.439453 443.718567,131.204575 467.650970,132.372818 
	C502.373779,134.067780 536.400635,140.918365 569.227783,152.934204 
	C593.130249,161.683304 615.946228,172.629517 637.548645,186.082703 
	C643.232666,189.622528 648.764709,193.406509 654.666809,197.285889 
z"/>
</svg>